<?xml version="1.0" encoding="UTF-8" standalone="no"?>
<svg xmlns="http://www.w3.org/2000/svg" width="141.5919mm" height="122.80626mm" viewBox="0 0 501.70361 435.14028" id="svg2" version="1.1">
  <g id="layer1" style="display:inline">
    <path style="fill:#000000" d="m 309.40365,-710.2521 122.19683,211.6751 -56.15706,0.5268 -32.6236,-56.8692 -32.85645,56.5653 -27.90237,-0.011 -14.29086,-24.6896 46.81047,-80.4902 -33.22946,-57.8256 z" id="path4861"/>
    <path style="fill:#000000" d="m 353.50926,-797.4433 -122.21756,211.6631 -28.53477,-48.37 32.93839,-56.6875 -65.41521,-0.1719 -13.9414,-24.1698 14.23637,-24.721 93.11177,0.2939 33.46371,-57.6903 z" id="use4863"/>
    <path style="fill:#000000" d="m 362.88537,-628.243 244.41439,0.012 -27.62229,48.8968 -65.56199,-0.1817 32.55876,56.7371 -13.96098,24.1585 -28.52722,0.032 -46.3013,-80.7841 -66.69317,-0.1353 z" id="use4865"/>
    <path style="fill:#000000" d="m 505.14318,-720.9886 -122.19683,-211.6751 56.15706,-0.5268 32.6236,56.8692 32.85645,-56.5653 27.90237,0.011 14.29086,24.6896 -46.81047,80.4902 33.22946,57.8256 z" id="use4867"/>
  </g>
  <g id="layer3" style="display:inline;opacity:1">
    <path style="fill:#000000" d="m 309.54892,-710.38827 122.19683,211.67512 -56.15706,0.5268 -32.6236,-56.8692 -32.85645,56.5653 -27.90237,-0.011 -14.29086,-24.6896 46.81047,-80.4901 -33.22946,-57.8257 z" id="path3336-6"/>
    <use height="100%" width="100%" transform="rotate(60,407.11155,-715.78724)" id="use3439-6" xlink:href="#path3336-6" y="0" x="0"/>
    <use height="100%" width="100%" transform="rotate(-60,407.31177,-715.70016)" id="use3445-0" xlink:href="#path3336-6" y="0" x="0"/>
    <use height="100%" width="100%" transform="rotate(180,407.41868,-715.7565)" id="use3449-5" xlink:href="#path3336-6" y="0" x="0"/>
    <path style="fill:#000000" d="m 309.54892,-710.38827 122.19683,211.67512 -56.15706,0.5268 -32.6236,-56.8692 -32.85645,56.5653 -27.90237,-0.011 -14.29086,-24.6896 46.81047,-80.4901 -33.22946,-57.8256 z" id="path4260-0"/>
    <use height="100%" width="100%" transform="rotate(120,407.33916,-716.08356)" id="use4354-5" xlink:href="#path4260-0" y="0" x="0"/>
    <use height="100%" width="100%" transform="rotate(-120,407.28823,-715.86995)" id="use4362-2" xlink:href="#path4260-0" y="0" x="0"/>
  </g>
</svg>
